<svg id="_2258525753856" xmlns="http://www.w3.org/2000/svg" viewBox="0 0 286.877 85.336">
  <defs>
    <style>
      .cls-1 {
        fill: none;
      }

      .cls-2 {
        fill: #0085ff;
      }
    </style>
  </defs>
  <g id="Group_2" data-name="Group 2">
    <path id="Path_10" data-name="Path 10" class="cls-2" d="M4293,10376.79c3.486.284,9.169-.761,12.532-1.521,3.479-.783,2.027-1.214,5.575-.169a37.3,37.3,0,0,0,6.105,1.183c7.556.922,19.2.622,25.624-2.158,7.541-3.264,9.4-10.527,9.8-18.444.53-10.536-.638-21.747-9.576-26.124-7.825-3.816-22.76-3.662-30.977-1.881a27.294,27.294,0,0,0-5.252,1.766c-8.969,4.062-9.875,16.08-9.123,26.255.6,8.116,2.166,5.49.007,11.572-.637,1.8-1.267,3.331-1.989,5.021C4294.259,10375.761,4293.3,10375.876,4293,10376.79Zm39.493-15.78a2.707,2.707,0,0,1-.062.346,7.193,7.193,0,0,1-4.676,4.9,8.673,8.673,0,0,1-5.4,0,7.193,7.193,0,0,1-4.677-4.9,1.391,1.391,0,0,1-.061-.346c-.016-.269.337-.437.737-.2a13.37,13.37,0,0,0,6.7,1.619h.008a13.318,13.318,0,0,0,6.688-1.619C4332.155,10360.572,4332.508,10360.741,4332.493,10361.01Zm1.313-18.8c5.667-1.383,7.541,7.311,1.927,8.523C4330.181,10351.94,4328.2,10343.563,4333.806,10342.212Zm-19.458.007c5.459-1.274,7.656,6.75,2.312,8.424a4.363,4.363,0,0,1-5.49-2.979A4.3,4.3,0,0,1,4314.347,10342.219Z" transform="translate(-4180 -10325.193)"/>
  </g>
</svg>
